<svg width="24" height="18" viewBox="0 0 24 18" fill="none" xmlns="http://www.w3.org/2000/svg">
<path d="M12 2.84336C16.1345 2.84336 19.8218 5.32031 21.6218 9.23924C19.8218 13.1582 16.1345 15.6351 12 15.6351C7.86545 15.6351 4.17818 13.1582 2.37818 9.23924C4.17818 5.32031 7.86545 2.84336 12 2.84336ZM12 0.517578C6.54545 0.517578 1.88727 4.13416 0 9.23924C1.88727 14.3443 6.54545 17.9609 12 17.9609C17.4545 17.9609 22.1127 14.3443 24 9.23924C22.1127 4.13416 17.4545 0.517578 12 0.517578ZM12 6.33202C13.5055 6.33202 14.7273 7.63446 14.7273 9.23924C14.7273 10.844 13.5055 12.1465 12 12.1465C10.4945 12.1465 9.27273 10.844 9.27273 9.23924C9.27273 7.63446 10.4945 6.33202 12 6.33202ZM12 4.00624C9.29455 4.00624 7.09091 6.35528 7.09091 9.23924C7.09091 12.1232 9.29455 14.4722 12 14.4722C14.7055 14.4722 16.9091 12.1232 16.9091 9.23924C16.9091 6.35528 14.7055 4.00624 12 4.00624Z" fill="#95969D"/>
</svg>
